<svg width="48" height="47" viewBox="0 0 48 47" fill="none" xmlns="http://www.w3.org/2000/svg">
<rect x="1.51562" y="1.01562" width="45.2396" height="44.9688" rx="22.4844" stroke="#FCAF17" stroke-width="2.03125"/>
<rect x="4.5" y="3.86458" width="39.2708" height="39.2708" rx="19.6354" fill="white"/>
<path d="M23.8885 31.43C20.9685 31.43 18.9085 29.71 18.8885 27.27H21.5885C21.6685 28.49 22.5485 29.23 23.9285 29.23C25.3685 29.23 26.2085 28.51 26.2085 27.31C26.2085 26.13 25.2285 25.43 23.5685 25.43H22.1085V23.23H23.4085C24.7685 23.23 25.5885 22.55 25.5885 21.45C25.5885 20.39 24.8885 19.73 23.7285 19.73C22.5885 19.73 21.8685 20.45 21.8485 21.63H19.1485C19.1685 19.29 21.2085 17.53 23.8685 17.53C26.7085 17.53 28.4485 19.07 28.4485 21.25C28.4485 22.49 27.7285 23.47 26.4285 24.15C28.1085 24.69 29.0685 25.77 29.0685 27.23C29.0685 29.73 26.9885 31.43 23.8885 31.43Z" fill="#003170"/>
</svg>
