<svg width="48" height="47" viewBox="0 0 48 47" fill="none" xmlns="http://www.w3.org/2000/svg">
<rect x="1.01562" y="1.01562" width="45.2396" height="44.9688" rx="22.4844" stroke="#FCAF17" stroke-width="2.03125"/>
<rect x="4" y="3.86458" width="39.2708" height="39.2708" rx="19.6354" fill="white"/>
<path d="M24.0271 31.0646C21.1471 31.0646 18.9671 29.2646 18.8871 26.7446H21.6671C21.8271 27.9246 22.7471 28.5846 24.0071 28.5846C25.6471 28.5846 26.2671 27.5446 26.2671 26.4446C26.2671 25.3846 25.5671 24.3046 23.9271 24.3046C22.8471 24.3046 22.0471 24.7446 21.6271 25.6646L19.3471 24.9246L20.5271 17.3446H28.3471V19.8246H22.5471L22.1271 22.5846C22.8071 22.1446 23.5871 21.9446 24.3871 21.9446C27.6071 21.9446 29.1471 24.1646 29.1471 26.4446C29.1471 28.7646 27.4271 31.0646 24.0271 31.0646Z" fill="#003170"/>
</svg>
